<?xml version="1.0" standalone="no"?>
<!DOCTYPE svg PUBLIC "-//W3C//DTD SVG 20010904//EN"
 "http://www.w3.org/TR/2001/REC-SVG-20010904/DTD/svg10.dtd">
<svg version="1.0" xmlns="http://www.w3.org/2000/svg"
 width="670.000000pt" height="670.000000pt" viewBox="0 0 670.000000 670.000000"
 preserveAspectRatio="xMidYMid meet">
<metadata>
Created by potrace 1.11, written by Peter Selinger 2001-2013
</metadata>
<g transform="translate(0.000000,670.000000) scale(0.100000,-0.100000)"
fill="#000000" stroke="none">
<path d="M4153 6539 l-112 -151 115 -69 c155 -94 250 -163 245 -180 -21 -73 1
-121 96 -204 107 -94 328 -319 373 -380 23 -31 75 -96 116 -144 40 -49 74 -92
74 -95 0 -4 22 -34 48 -69 48 -62 212 -310 212 -321 0 -4 23 -46 51 -95 169
-298 316 -753 350 -1084 19 -185 -2 -531 -46 -767 -262 -1391 -1398 -2437
-2809 -2585 -387 -40 -829 -2 -1206 104 -58 16 -106 29 -107 28 -5 -6 228
-106 347 -149 520 -191 1121 -233 1670 -117 368 79 750 238 1050 439 30 20 75
45 100 54 25 9 67 34 94 54 27 20 56 42 65 47 69 43 287 246 375 348 110 129
330 460 448 672 521 943 579 2123 153 3119 -303 709 -814 1276 -1476 1637 -60
33 -109 59 -111 59 -2 -1 -53 -69 -115 -151z"/>
<path d="M1945 5963 c-383 -24 -778 -129 -1135 -299 -122 -58 -344 -184 -337
-190 1 -2 54 17 117 41 63 24 127 44 142 45 15 0 39 5 55 11 15 6 45 13 66 15
21 2 59 11 84 19 26 9 52 14 59 11 7 -3 28 -1 46 5 18 5 58 12 88 14 30 3 84
8 120 11 110 10 538 6 559 -6 11 -5 46 -10 78 -10 33 0 63 -4 69 -9 5 -5 34
-11 64 -14 67 -5 178 -25 205 -37 11 -5 34 -11 50 -14 56 -11 190 -49 220 -62
17 -7 53 -18 80 -25 28 -7 59 -18 70 -25 11 -6 38 -17 60 -24 22 -7 45 -16 50
-20 6 -5 33 -17 60 -28 67 -26 70 -27 150 -72 39 -21 95 -51 125 -66 30 -15
67 -36 81 -47 34 -25 59 -17 95 31 16 20 33 42 40 47 6 6 33 39 58 74 52 71
57 109 19 126 -13 5 -23 14 -23 20 0 5 28 46 61 90 l60 80 -73 34 c-446 206
-974 306 -1463 274z"/>
<path d="M3821 5430 c-195 -51 -350 -202 -407 -395 -24 -81 -24 -229 0 -310
55 -184 216 -350 386 -395 25 -7 54 -16 65 -20 33 -14 170 -19 217 -8 23 5 54
12 68 14 31 6 147 69 179 98 72 65 155 203 187 312 24 83 22 229 -5 314 -93
295 -397 466 -690 390z"/>
</g>
</svg>
